{
    "asset" : {
        "generator" : "Khronos glTF Blender I/O v1.8.19",
        "version" : "2.0"
    },
    "scene" : 0,
    "scenes" : [
        {
            "name" : "Scene",
            "nodes" : [
                0
            ]
        }
    ],
    "nodes" : [
        {
            "mesh" : 0,
            "name" : "12140_Skull_v3_L2",
            "rotation" : [
                0.004492724779993296,
                0.07398313283920288,
                0.9954156875610352,
                0.060447946190834045
            ],
            "scale" : [
                0.013289500027894974,
                0.013289500959217548,
                0.013289500959217548
            ]
        }
    ],
    "materials" : [
        {
            "doubleSided" : true,
            "name" : "12140_Skull_v3.001",
            "pbrMetallicRoughness" : {
                "baseColorTexture" : {
                    "index" : 0
                },
                "metallicFactor" : 0,
                "roughnessFactor" : 0.5527864098548889
            }
        }
    ],
    "meshes" : [
        {
            "name" : "Mesh.001",
            "primitives" : [
                {
                    "attributes" : {
                        "POSITION" : 0,
                        "NORMAL" : 1,
                        "TEXCOORD_0" : 2
                    },
                    "indices" : 3,
                    "material" : 0
                }
            ]
        }
    ],
    "textures" : [
        {
            "sampler" : 0,
            "source" : 0
        }
    ],
    "images" : [
        {
            "bufferView" : 4,
            "mimeType" : "image/jpeg",
            "name" : "Image_0"
        }
    ],
    "accessors" : [
        {
            "bufferView" : 0,
            "componentType" : 5126,
            "count" : 42682,
            "max" : [
                9.919899940490723,
                13.964300155639648,
                27.575899124145508
            ],
            "min" : [
                -9.92039966583252,
                -15.487700462341309,
                0.050200000405311584
            ],
            "type" : "VEC3"
        },
        {
            "bufferView" : 1,
            "componentType" : 5126,
            "count" : 42682,
            "type" : "VEC3"
        },
        {
            "bufferView" : 2,
            "componentType" : 5126,
            "count" : 42682,
            "type" : "VEC2"
        },
        {
            "bufferView" : 3,
            "componentType" : 5123,
            "count" : 240048,
            "type" : "SCALAR"
        }
    ],
    "bufferViews" : [
        {
            "buffer" : 0,
            "byteLength" : 512184,
            "byteOffset" : 0
        },
        {
            "buffer" : 0,
            "byteLength" : 512184,
            "byteOffset" : 512184
        },
        {
            "buffer" : 0,
            "byteLength" : 341456,
            "byteOffset" : 1024368
        },
        {
            "buffer" : 0,
            "byteLength" : 480096,
            "byteOffset" : 1365824
        },
        {
            "buffer" : 0,
            "byteLength" : 160896,
            "byteOffset" : 1845920
        }
    ],
    "samplers" : [
        {
            "magFilter" : 9729,
            "minFilter" : 9987
        }
    ],
    "buffers" : [
        {
            "byteLength" : 2006816,
            "uri" : "data:application/octet-stream;base64,"
        }
    ]
}
